<svg width="360" height="226" viewBox="0 0 360 226" fill="none" xmlns="http://www.w3.org/2000/svg">
<g clip-path="url(#clip0_975_20631)">
<g clip-path="url(#clip1_975_20631)">
<path opacity="0.15" d="M266.002 79.6053C266.002 79.6053 257.542 13.4054 207.627 61.0002C143.639 122.01 100.628 0.751926 53.1604 50.2481C27.2278 77.2877 95.7542 137.761 49.9883 169.586C4.22234 201.411 41.6214 225.236 41.6214 225.236H301.492C301.492 225.236 328.394 227.179 330.431 193.138C332.464 159.096 301.192 158.684 320.601 116.084C340.009 73.4849 272.101 106.72 266.002 79.6053Z" fill="url(#paint0_linear_975_20631)"/>
<mask id="mask0_975_20631" style="mask-type:alpha" maskUnits="userSpaceOnUse" x="27" y="38" width="304" height="188">
<path d="M266.002 79.6053C266.002 79.6053 257.542 13.4054 207.627 61.0002C143.639 122.01 100.628 0.751926 53.1604 50.2481C27.2278 77.2877 95.7542 137.761 49.9883 169.586C4.22234 201.411 41.6214 225.236 41.6214 225.236H301.492C301.492 225.236 328.394 227.179 330.431 193.138C332.464 159.096 301.192 158.684 320.601 116.084C340.009 73.4849 272.101 106.72 266.002 79.6053Z" fill="url(#paint1_linear_975_20631)"/>
</mask>
<g mask="url(#mask0_975_20631)">
<rect opacity="0.45" x="85.7266" y="34.4551" width="144" height="127.8" fill="url(#paint2_linear_975_20631)"/>
<path opacity="0.45" d="M77.8281 170.9H237.879L232.039 179.543C231.804 179.891 231.413 180.099 230.993 180.099H84.714C84.2949 180.099 83.9031 179.891 83.6684 179.543L77.8281 170.9Z" fill="url(#paint3_linear_975_20631)"/>
<rect opacity="0.45" x="68.625" y="167.221" width="178.448" height="1.83967" fill="url(#paint4_linear_975_20631)"/>
<rect x="89.7852" y="45.8027" width="136.135" height="2.7595" fill="white"/>
<rect x="89.7852" y="55.002" width="136.135" height="2.7595" fill="white"/>
<rect x="89.7852" y="64.2012" width="136.135" height="2.7595" fill="white"/>
<rect x="89.7852" y="73.3965" width="136.135" height="2.7595" fill="white"/>
<rect x="89.7852" y="82.5957" width="136.135" height="2.7595" fill="white"/>
<rect x="89.7852" y="91.7949" width="136.135" height="2.7595" fill="white"/>
<rect x="89.7852" y="100.994" width="136.135" height="2.7595" fill="white"/>
<rect x="89.7852" y="110.189" width="136.135" height="2.7595" fill="white"/>
<rect x="89.7852" y="119.389" width="136.135" height="2.7595" fill="white"/>
<rect x="89.7852" y="50.4004" width="136.135" height="2.7595" fill="white"/>
<rect x="89.7852" y="59.5996" width="136.135" height="2.7595" fill="white"/>
<rect x="89.7852" y="68.7988" width="136.135" height="2.7595" fill="white"/>
<rect x="89.7852" y="77.998" width="136.135" height="2.7595" fill="white"/>
<rect x="89.7852" y="87.1973" width="136.135" height="2.7595" fill="white"/>
<rect x="89.7852" y="96.3926" width="136.135" height="2.7595" fill="white"/>
<rect x="89.7852" y="105.592" width="136.135" height="2.7595" fill="white"/>
<rect x="89.7852" y="114.791" width="136.135" height="2.7595" fill="white"/>
<rect x="89.7852" y="123.986" width="136.135" height="2.7595" fill="white"/>
<rect x="95.3008" y="45.8027" width="0.919834" height="92.9033" fill="url(#paint5_linear_975_20631)"/>
<path d="M94.1016 138.416C94.1016 138.068 94.384 137.785 94.7325 137.785H96.782C97.1305 137.785 97.413 138.068 97.413 138.416V140.796H94.1016V138.416Z" fill="url(#paint6_linear_975_20631)"/>
<path d="M93.1341 141.239C93.2167 140.976 93.4604 140.797 93.736 140.797H97.7769C98.0525 140.797 98.2962 140.976 98.3788 141.239L99.638 145.245C99.7657 145.651 99.4621 146.065 99.036 146.065H92.4768C92.0508 146.065 91.7472 145.651 91.8749 145.245L93.1341 141.239Z" fill="url(#paint7_linear_975_20631)"/>
</g>
<path d="M41.2891 224.832H288.916" stroke="#9CACCE" stroke-width="1.8" stroke-miterlimit="10"/>
<path d="M297.586 224.832H328.189" stroke="#9CACCE" stroke-width="1.8" stroke-miterlimit="10"/>
<path d="M102.146 226.113H89.347C89.009 226.113 88.7159 225.889 88.6262 225.565L83.2147 205.978C83.0837 205.502 83.4424 205.029 83.9356 205.029H107.554C108.051 205.029 108.41 205.502 108.275 205.978L102.864 225.565C102.777 225.889 102.484 226.113 102.146 226.113Z" fill="url(#paint8_linear_975_20631)"/>
<path d="M99.3733 205.031C99.3733 205.031 99.0629 196.626 105.754 188.221" stroke="url(#paint9_linear_975_20631)" stroke-width="1.0347" stroke-miterlimit="10"/>
<path d="M83.1875 192.308C90.8719 189.31 91.8997 205.031 91.8997 205.031" stroke="url(#paint10_linear_975_20631)" stroke-width="1.0347" stroke-miterlimit="10"/>
<path d="M95.4632 205.031L94.1836 193.688" stroke="url(#paint11_linear_975_20631)" stroke-width="1.0347" stroke-miterlimit="10"/>
<path d="M104.721 196.318C101.417 196.732 99.2821 192.924 101.203 190.206C101.286 190.086 101.379 189.965 101.472 189.841C104.597 185.833 108.719 183.257 116.855 186.14C117.013 186.195 116.975 186.433 116.806 186.433C114.644 186.457 109.195 186.906 108.663 190.713C108.129 194.583 106.556 196.087 104.721 196.318Z" fill="url(#paint12_linear_975_20631)"/>
<path d="M94.0388 175.756C94.0388 175.756 93.987 185.103 95.8529 187.21C97.7154 189.321 96.9946 194.836 94.1871 194.587C91.3761 194.336 87.3201 185.21 94.0388 175.756Z" fill="url(#paint13_linear_975_20631)"/>
<path d="M75.7853 201.316C75.7853 201.316 75.6784 192.98 81.621 191.135C87.2118 189.397 86.1047 198.592 75.7853 201.316Z" fill="url(#paint14_linear_975_20631)"/>
</g>
<path d="M120.493 115.14V110.955H136.666V115.14L125.63 128.455H136.856V132.639H119.922V128.455L130.958 115.14H120.493Z" fill="#EA6A00"/>
<path d="M141.002 137.919V135.256H151.467V137.919L144.427 146.478H151.657V149.141H140.621V146.478L147.661 137.919H141.002Z" fill="#EA6A00"/>
<path d="M138.882 224.964L228.369 224.72C229.025 224.716 229.601 224.275 229.766 223.64L247.642 155.457C247.884 154.536 247.187 153.639 246.239 153.643L156.751 153.887C156.096 153.891 155.52 154.332 155.354 154.967L137.478 223.15C137.236 224.068 137.933 224.968 138.882 224.964Z" fill="url(#paint15_linear_975_20631)"/>
<path d="M264.176 224.964L174.75 224.719C174.081 224.716 173.495 224.264 173.326 223.615L155.467 155.491C155.222 154.553 155.929 153.635 156.902 153.639L246.327 153.884C246.996 153.887 247.583 154.339 247.752 154.987L265.611 223.108C265.855 224.05 265.145 224.967 264.176 224.964Z" fill="white"/>
<path d="M251.568 169.976L247.737 154.934C247.567 154.274 246.976 153.814 246.301 153.811L156.622 153.639C155.645 153.635 155.242 154.298 155.489 155.253L159.448 170.355L251.568 169.976Z" fill="#98B720"/>
<path d="M175.568 164.319C176.318 164.114 176.665 162.995 176.344 161.819C176.022 160.643 175.154 159.856 174.404 160.061C173.655 160.266 173.307 161.385 173.629 162.561C173.95 163.737 174.819 164.524 175.568 164.319Z" fill="white"/>
<path d="M202.647 164.323C203.396 164.118 203.743 162.999 203.422 161.823C203.1 160.647 202.232 159.86 201.482 160.064C200.733 160.269 200.386 161.389 200.707 162.565C201.029 163.741 201.897 164.528 202.647 164.323Z" fill="white"/>
<path d="M229.721 164.323C230.47 164.118 230.818 162.999 230.496 161.823C230.175 160.647 229.306 159.86 228.557 160.064C227.807 160.269 227.46 161.389 227.781 162.565C228.103 163.741 228.971 164.528 229.721 164.323Z" fill="white"/>
<path d="M163.141 150.863C164.337 147.486 167.145 145.113 170.411 145.113C174.771 145.113 178.302 149.328 178.302 154.526C178.302 157.775 176.923 160.637 174.822 162.331" stroke="url(#paint16_linear_975_20631)" stroke-width="1.8" stroke-miterlimit="10" stroke-linecap="round"/>
<path d="M190.125 150.863C191.322 147.486 194.129 145.113 197.395 145.113C201.755 145.113 205.287 149.328 205.287 154.526C205.287 157.775 203.907 160.637 201.807 162.331" stroke="url(#paint17_linear_975_20631)" stroke-width="1.8" stroke-miterlimit="10" stroke-linecap="round"/>
<path d="M217.102 150.863C218.298 147.486 221.106 145.113 224.372 145.113C228.732 145.113 232.263 149.328 232.263 154.526C232.263 157.775 230.884 160.637 228.783 162.331" stroke="url(#paint18_linear_975_20631)" stroke-width="1.8" stroke-miterlimit="10" stroke-linecap="round"/>
<path d="M184.825 204.433L185.37 206.504C185.374 206.52 185.378 206.535 185.382 206.551C185.378 206.536 185.372 206.52 185.368 206.505L184.825 204.433Z" stroke="url(#paint19_linear_975_20631)" stroke-width="0.3449"/>
<path d="M200.435 204.433L200.979 206.504C200.983 206.52 200.987 206.535 200.991 206.551C200.987 206.536 200.982 206.52 200.978 206.505L200.435 204.433Z" stroke="url(#paint20_linear_975_20631)" stroke-width="0.3449"/>
<path d="M216.04 204.433L216.585 206.504C216.589 206.52 216.593 206.535 216.597 206.551C216.593 206.536 216.587 206.52 216.583 206.505L216.04 204.433Z" stroke="url(#paint21_linear_975_20631)" stroke-width="0.3449"/>
<path d="M231.646 204.433L232.19 206.504C232.194 206.52 232.198 206.535 232.202 206.551C232.198 206.536 232.193 206.52 232.188 206.505L231.646 204.433Z" stroke="url(#paint22_linear_975_20631)" stroke-width="0.3449"/>
<path d="M247.251 204.433L247.796 206.504C247.8 206.52 247.804 206.535 247.808 206.551C247.803 206.536 247.798 206.52 247.794 206.505L247.251 204.433Z" stroke="url(#paint23_linear_975_20631)" stroke-width="0.3449"/>
<mask id="path-52-inside-1_975_20631" fill="white">
<path d="M169.523 181.733L209.439 181.613L219.417 181.578H229.395L239.373 181.64L244.363 181.671L249.351 181.733V181.768L244.363 181.826L239.373 181.861L229.395 181.923L219.417 181.92L209.439 181.889L169.523 181.768V181.733Z"/>
</mask>
<path d="M169.523 181.733L169.522 181.388L169.179 181.389V181.733H169.523ZM209.439 181.613L209.44 181.958L209.44 181.958L209.439 181.613ZM219.417 181.578V181.233L219.415 181.233L219.417 181.578ZM229.395 181.578L229.397 181.233H229.395V181.578ZM239.373 181.64L239.37 181.985L239.373 181.64ZM244.363 181.671L244.368 181.326L244.365 181.326L244.363 181.671ZM249.351 181.733H249.695V181.393L249.355 181.388L249.351 181.733ZM249.351 181.768L249.355 182.113L249.695 182.109V181.768H249.351ZM244.363 181.826L244.366 182.171L244.367 182.171L244.363 181.826ZM239.373 181.861L239.375 182.206L239.375 182.206L239.373 181.861ZM229.395 181.923L229.394 182.268L229.397 182.268L229.395 181.923ZM219.417 181.92L219.416 182.264L219.417 182.264L219.417 181.92ZM209.439 181.889L209.44 181.544L209.44 181.544L209.439 181.889ZM169.523 181.768H169.179V182.112L169.522 182.113L169.523 181.768ZM169.523 181.733L169.524 182.078L209.44 181.958L209.439 181.613L209.438 181.268L169.522 181.388L169.523 181.733ZM209.439 181.613L209.44 181.958L219.418 181.923L219.417 181.578L219.415 181.233L209.438 181.268L209.439 181.613ZM219.417 181.578V181.923H229.395V181.578V181.233H219.417V181.578ZM229.395 181.578L229.392 181.923L239.37 181.985L239.373 181.64L239.375 181.295L229.397 181.233L229.395 181.578ZM239.373 181.64L239.37 181.985L244.361 182.016L244.363 181.671L244.365 181.326L239.375 181.295L239.373 181.64ZM244.363 181.671L244.359 182.016L249.346 182.078L249.351 181.733L249.355 181.388L244.368 181.326L244.363 181.671ZM249.351 181.733H249.006V181.768H249.351H249.695V181.733H249.351ZM249.351 181.768L249.346 181.423L244.359 181.482L244.363 181.826L244.367 182.171L249.355 182.113L249.351 181.768ZM244.363 181.826L244.361 181.482L239.37 181.516L239.373 181.861L239.375 182.206L244.366 182.171L244.363 181.826ZM239.373 181.861L239.37 181.516L229.392 181.578L229.395 181.923L229.397 182.268L239.375 182.206L239.373 181.861ZM229.395 181.923L229.395 181.578L219.417 181.575L219.417 181.92L219.417 182.264L229.394 182.268L229.395 181.923ZM219.417 181.92L219.418 181.575L209.44 181.544L209.439 181.889L209.438 182.233L219.416 182.264L219.417 181.92ZM209.439 181.889L209.44 181.544L169.524 181.423L169.523 181.768L169.522 182.113L209.438 182.233L209.439 181.889ZM169.523 181.768H169.868V181.733H169.523H169.179V181.768H169.523Z" fill="url(#paint24_linear_975_20631)" mask="url(#path-52-inside-1_975_20631)"/>
<mask id="path-54-inside-2_975_20631" fill="white">
<path d="M172 193.936L211.912 193.816L221.893 193.785L231.871 193.781L241.849 193.843L246.836 193.874L251.827 193.936V193.971L246.836 194.033L241.849 194.064L231.871 194.126H221.893L211.912 194.092L172 193.971V193.936Z"/>
</mask>
<path d="M172 193.936L171.999 193.592L171.655 193.593V193.936H172ZM211.912 193.816L211.913 194.161L211.913 194.161L211.912 193.816ZM221.893 193.785L221.893 193.44L221.892 193.44L221.893 193.785ZM231.871 193.781L231.873 193.436L231.871 193.436L231.871 193.781ZM241.849 193.843L241.851 193.498L241.849 193.843ZM246.836 193.874L246.841 193.529L246.839 193.529L246.836 193.874ZM251.827 193.936H252.172V193.596L251.831 193.592L251.827 193.936ZM251.827 193.971L251.831 194.316L252.172 194.312V193.971H251.827ZM246.836 194.033L246.839 194.378L246.841 194.378L246.836 194.033ZM241.849 194.064L241.851 194.409L241.849 194.064ZM231.871 194.126V194.471L231.873 194.471L231.871 194.126ZM221.893 194.126L221.892 194.471H221.893V194.126ZM211.912 194.092L211.913 193.747L211.913 193.747L211.912 194.092ZM172 193.971H171.655V194.315L171.999 194.316L172 193.971ZM172 193.936L172.001 194.281L211.913 194.161L211.912 193.816L211.911 193.471L171.999 193.592L172 193.936ZM211.912 193.816L211.913 194.161L221.894 194.13L221.893 193.785L221.892 193.44L211.911 193.471L211.912 193.816ZM221.893 193.785L221.893 194.13L231.871 194.126L231.871 193.781L231.871 193.436L221.893 193.44L221.893 193.785ZM231.871 193.781L231.869 194.126L241.847 194.188L241.849 193.843L241.851 193.498L231.873 193.436L231.871 193.781ZM241.849 193.843L241.847 194.188L246.834 194.219L246.836 193.874L246.839 193.529L241.851 193.498L241.849 193.843ZM246.836 193.874L246.832 194.219L251.823 194.281L251.827 193.936L251.831 193.592L246.841 193.53L246.836 193.874ZM251.827 193.936H251.482V193.971H251.827H252.172V193.936H251.827ZM251.827 193.971L251.823 193.626L246.832 193.688L246.836 194.033L246.841 194.378L251.831 194.316L251.827 193.971ZM246.836 194.033L246.834 193.688L241.847 193.719L241.849 194.064L241.851 194.409L246.839 194.378L246.836 194.033ZM241.849 194.064L241.847 193.719L231.869 193.781L231.871 194.126L231.873 194.471L241.851 194.409L241.849 194.064ZM231.871 194.126V193.781H221.893V194.126V194.471H231.871V194.126ZM221.893 194.126L221.894 193.781L211.913 193.747L211.912 194.092L211.911 194.437L221.892 194.471L221.893 194.126ZM211.912 194.092L211.913 193.747L172.001 193.626L172 193.971L171.999 194.316L211.911 194.437L211.912 194.092ZM172 193.971H172.345V193.936H172H171.655V193.971H172Z" fill="url(#paint25_linear_975_20631)" mask="url(#path-54-inside-2_975_20631)"/>
<mask id="path-56-inside-3_975_20631" fill="white">
<path d="M174.992 206.147L214.904 206.027L224.885 205.992H234.863L244.841 206.054L249.829 206.085L254.819 206.147V206.182L249.829 206.244L244.841 206.275L234.863 206.337L224.885 206.334L214.904 206.303L174.992 206.182V206.147Z"/>
</mask>
<path d="M174.992 206.147L174.991 205.802L174.647 205.804V206.147H174.992ZM214.904 206.027L214.905 206.372L214.905 206.372L214.904 206.027ZM224.885 205.992V205.647L224.884 205.647L224.885 205.992ZM234.863 205.992L234.866 205.647H234.863V205.992ZM244.841 206.054L244.843 205.709L244.841 206.054ZM249.829 206.085L249.833 205.74L249.831 205.74L249.829 206.085ZM254.819 206.147H255.164V205.807L254.824 205.803L254.819 206.147ZM254.819 206.182L254.824 206.527L255.164 206.523V206.182H254.819ZM249.829 206.244L249.831 206.589L249.833 206.589L249.829 206.244ZM244.841 206.275L244.843 206.62L244.841 206.275ZM234.863 206.337L234.863 206.682L234.866 206.682L234.863 206.337ZM224.885 206.334L224.884 206.679L224.885 206.679L224.885 206.334ZM214.904 206.303L214.905 205.958L214.905 205.958L214.904 206.303ZM174.992 206.182H174.647V206.526L174.991 206.527L174.992 206.182ZM174.992 206.147L174.993 206.492L214.905 206.372L214.904 206.027L214.903 205.682L174.991 205.802L174.992 206.147ZM214.904 206.027L214.905 206.372L224.887 206.337L224.885 205.992L224.884 205.647L214.903 205.682L214.904 206.027ZM224.885 205.992V206.337H234.863V205.992V205.647H224.885V205.992ZM234.863 205.992L234.861 206.337L244.839 206.399L244.841 206.054L244.843 205.709L234.866 205.647L234.863 205.992ZM244.841 206.054L244.839 206.399L249.826 206.43L249.829 206.085L249.831 205.74L244.843 205.709L244.841 206.054ZM249.829 206.085L249.824 206.43L254.815 206.492L254.819 206.147L254.824 205.803L249.833 205.74L249.829 206.085ZM254.819 206.147H254.474V206.182H254.819H255.164V206.147H254.819ZM254.819 206.182L254.815 205.837L249.824 205.899L249.829 206.244L249.833 206.589L254.824 206.527L254.819 206.182ZM249.829 206.244L249.826 205.899L244.839 205.93L244.841 206.275L244.843 206.62L249.831 206.589L249.829 206.244ZM244.841 206.275L244.839 205.93L234.861 205.992L234.863 206.337L234.866 206.682L244.843 206.62L244.841 206.275ZM234.863 206.337L234.863 205.992L224.886 205.989L224.885 206.334L224.885 206.679L234.863 206.682L234.863 206.337ZM224.885 206.334L224.886 205.989L214.905 205.958L214.904 206.303L214.903 206.648L224.884 206.679L224.885 206.334ZM214.904 206.303L214.905 205.958L174.993 205.837L174.992 206.182L174.991 206.527L214.903 206.648L214.904 206.303ZM174.992 206.182H175.337V206.147H174.992H174.647V206.182H174.992Z" fill="url(#paint26_linear_975_20631)" mask="url(#path-56-inside-3_975_20631)"/>
</g>
<defs>
<linearGradient id="paint0_linear_975_20631" x1="27.2266" y1="38.0566" x2="156.934" y2="298.092" gradientUnits="userSpaceOnUse">
<stop stop-color="#AACBFA"/>
<stop offset="1" stop-color="#C4DFFB"/>
</linearGradient>
<linearGradient id="paint1_linear_975_20631" x1="27.2266" y1="38.0566" x2="156.934" y2="298.092" gradientUnits="userSpaceOnUse">
<stop stop-color="#AACBFA"/>
<stop offset="1" stop-color="#C4DFFB"/>
</linearGradient>
<linearGradient id="paint2_linear_975_20631" x1="-47.9234" y1="301.755" x2="71.6987" y2="-4.35024" gradientUnits="userSpaceOnUse">
<stop stop-color="#C5D2EC"/>
<stop offset="0.9964" stop-color="#F1F7FE"/>
</linearGradient>
<linearGradient id="paint3_linear_975_20631" x1="-42.6111" y1="168.097" x2="28.566" y2="326.749" gradientUnits="userSpaceOnUse">
<stop stop-color="#C5D2EC"/>
<stop offset="0.9964" stop-color="#F1F7FE"/>
</linearGradient>
<linearGradient id="paint4_linear_975_20631" x1="92.0605" y1="167.253" x2="93.0904" y2="183.758" gradientUnits="userSpaceOnUse">
<stop stop-color="#B0BBCC"/>
<stop offset="1" stop-color="#8D9EB7"/>
</linearGradient>
<linearGradient id="paint5_linear_975_20631" x1="94.6086" y1="17.4894" x2="96.9499" y2="17.4919" gradientUnits="userSpaceOnUse">
<stop stop-color="#B8C5E0"/>
<stop offset="0.9964" stop-color="#C9D8E8"/>
</linearGradient>
<linearGradient id="paint6_linear_975_20631" x1="94.5364" y1="137.837" x2="99.3064" y2="138.704" gradientUnits="userSpaceOnUse">
<stop stop-color="#B0BBCC"/>
<stop offset="1" stop-color="#8D9EB7"/>
</linearGradient>
<linearGradient id="paint7_linear_975_20631" x1="92.7044" y1="140.888" x2="104.245" y2="143.884" gradientUnits="userSpaceOnUse">
<stop stop-color="#B0BBCC"/>
<stop offset="1" stop-color="#8D9EB7"/>
</linearGradient>
<linearGradient id="paint8_linear_975_20631" x1="86.486" y1="205.394" x2="122.466" y2="212.475" gradientUnits="userSpaceOnUse">
<stop stop-color="#B0BBCC"/>
<stop offset="1" stop-color="#8D9EB7"/>
</linearGradient>
<linearGradient id="paint9_linear_975_20631" x1="94.5679" y1="183.098" x2="110.787" y2="183.769" gradientUnits="userSpaceOnUse">
<stop stop-color="#B8C5E0"/>
<stop offset="0.9964" stop-color="#C9D8E8"/>
</linearGradient>
<linearGradient id="paint10_linear_975_20631" x1="76.6315" y1="187.934" x2="98.6909" y2="189.533" gradientUnits="userSpaceOnUse">
<stop stop-color="#B8C5E0"/>
<stop offset="0.9964" stop-color="#C9D8E8"/>
</linearGradient>
<linearGradient id="paint11_linear_975_20631" x1="93.2207" y1="190.23" x2="96.4772" y2="190.27" gradientUnits="userSpaceOnUse">
<stop stop-color="#B8C5E0"/>
<stop offset="0.9964" stop-color="#C9D8E8"/>
</linearGradient>
<linearGradient id="paint12_linear_975_20631" x1="88.076" y1="181.424" x2="129.011" y2="187.852" gradientUnits="userSpaceOnUse">
<stop stop-color="#B8C5E0"/>
<stop offset="0.9964" stop-color="#C9D8E8"/>
</linearGradient>
<linearGradient id="paint13_linear_975_20631" x1="85.4834" y1="170.014" x2="102.019" y2="170.637" gradientUnits="userSpaceOnUse">
<stop stop-color="#B8C5E0"/>
<stop offset="0.9964" stop-color="#C9D8E8"/>
</linearGradient>
<linearGradient id="paint14_linear_975_20631" x1="68.8834" y1="187.749" x2="92.0145" y2="189.973" gradientUnits="userSpaceOnUse">
<stop stop-color="#B8C5E0"/>
<stop offset="0.9964" stop-color="#C9D8E8"/>
</linearGradient>
<linearGradient id="paint15_linear_975_20631" x1="54.4579" y1="131.906" x2="327.356" y2="177.896" gradientUnits="userSpaceOnUse">
<stop stop-color="#B8C5E0"/>
<stop offset="0.9964" stop-color="#C9D8E8"/>
</linearGradient>
<linearGradient id="paint16_linear_975_20631" x1="165.132" y1="145.411" x2="187.225" y2="148.625" gradientUnits="userSpaceOnUse">
<stop stop-color="#B0BBCC"/>
<stop offset="1" stop-color="#8D9EB7"/>
</linearGradient>
<linearGradient id="paint17_linear_975_20631" x1="192.116" y1="145.411" x2="214.21" y2="148.625" gradientUnits="userSpaceOnUse">
<stop stop-color="#B0BBCC"/>
<stop offset="1" stop-color="#8D9EB7"/>
</linearGradient>
<linearGradient id="paint18_linear_975_20631" x1="219.093" y1="145.411" x2="241.186" y2="148.625" gradientUnits="userSpaceOnUse">
<stop stop-color="#B0BBCC"/>
<stop offset="1" stop-color="#8D9EB7"/>
</linearGradient>
<linearGradient id="paint19_linear_975_20631" x1="169.314" y1="163.636" x2="196.506" y2="164.416" gradientUnits="userSpaceOnUse">
<stop stop-color="#B8C5E0"/>
<stop offset="0.9964" stop-color="#C9D8E8"/>
</linearGradient>
<linearGradient id="paint20_linear_975_20631" x1="184.923" y1="163.636" x2="212.115" y2="164.416" gradientUnits="userSpaceOnUse">
<stop stop-color="#B8C5E0"/>
<stop offset="0.9964" stop-color="#C9D8E8"/>
</linearGradient>
<linearGradient id="paint21_linear_975_20631" x1="200.529" y1="163.636" x2="227.72" y2="164.416" gradientUnits="userSpaceOnUse">
<stop stop-color="#B8C5E0"/>
<stop offset="0.9964" stop-color="#C9D8E8"/>
</linearGradient>
<linearGradient id="paint22_linear_975_20631" x1="216.134" y1="163.636" x2="243.326" y2="164.416" gradientUnits="userSpaceOnUse">
<stop stop-color="#B8C5E0"/>
<stop offset="0.9964" stop-color="#C9D8E8"/>
</linearGradient>
<linearGradient id="paint23_linear_975_20631" x1="231.739" y1="163.636" x2="258.931" y2="164.416" gradientUnits="userSpaceOnUse">
<stop stop-color="#B8C5E0"/>
<stop offset="0.9964" stop-color="#C9D8E8"/>
</linearGradient>
<linearGradient id="paint24_linear_975_20631" x1="109.453" y1="181.473" x2="109.772" y2="189.514" gradientUnits="userSpaceOnUse">
<stop stop-color="#B8C5E0"/>
<stop offset="0.9964" stop-color="#C9D8E8"/>
</linearGradient>
<linearGradient id="paint25_linear_975_20631" x1="111.93" y1="193.676" x2="112.248" y2="201.717" gradientUnits="userSpaceOnUse">
<stop stop-color="#B8C5E0"/>
<stop offset="0.9964" stop-color="#C9D8E8"/>
</linearGradient>
<linearGradient id="paint26_linear_975_20631" x1="114.922" y1="205.887" x2="115.241" y2="213.928" gradientUnits="userSpaceOnUse">
<stop stop-color="#B8C5E0"/>
<stop offset="0.9964" stop-color="#C9D8E8"/>
</linearGradient>
<clipPath id="clip0_975_20631">
<rect width="360" height="225.509" fill="white"/>
</clipPath>
<clipPath id="clip1_975_20631">
<rect width="303.579" height="187.294" fill="white" transform="translate(27.2266 38.0566)"/>
</clipPath>
</defs>
</svg>
