<svg width="400" height="270" viewBox="0 0 400 270" fill="none" xmlns="http://www.w3.org/2000/svg">
<g clip-path="url(#clip0_900_19516)">
<g clip-path="url(#clip1_900_19516)">
<path opacity="0.15" d="M305.968 95.4177C305.968 95.4177 295.787 15.7557 235.722 73.0291C158.723 146.445 106.965 0.529133 49.8443 60.0906C18.6382 92.6287 101.1 165.4 46.0271 203.696C-9.04552 241.993 35.9588 270.663 35.9588 270.663H348.675C348.675 270.663 381.048 273.001 383.499 232.037C385.945 191.074 348.314 190.577 371.67 139.315C395.025 88.0527 313.307 128.046 305.968 95.4177Z" fill="url(#paint0_linear_900_19516)"/>
<g opacity="0.45">
<rect x="300.373" y="159.139" width="22.7434" height="111.551" fill="url(#paint1_linear_900_19516)"/>
<rect x="236.477" y="207.873" width="22.7434" height="62.8151" fill="url(#paint2_linear_900_19516)"/>
<path d="M259.219 120.149L279.796 102.82L300.373 120.149V270.688H259.219V120.149Z" fill="url(#paint3_linear_900_19516)"/>
<rect x="265.717" y="125.564" width="11.9132" height="29.2415" fill="white"/>
<rect x="265.717" y="159.139" width="11.9132" height="29.2415" fill="white"/>
<rect x="265.717" y="192.711" width="11.9132" height="29.2415" fill="white"/>
<rect x="281.963" y="125.564" width="11.9132" height="29.2415" fill="white"/>
<rect x="281.963" y="159.139" width="11.9132" height="29.2415" fill="white"/>
<rect x="281.963" y="192.711" width="11.9132" height="29.2415" fill="white"/>
<rect x="265.717" y="227.367" width="28.1585" height="43.3208" fill="white"/>
<rect x="117.344" y="120.148" width="30.3245" height="150.54" fill="url(#paint4_linear_900_19516)"/>
<rect x="122.76" y="111.484" width="19.4943" height="8.66415" fill="url(#paint5_linear_900_19516)"/>
<path d="M126.008 102.821L132.506 97.9473L139.004 102.821V111.485H126.008V102.821Z" fill="url(#paint6_linear_900_19516)"/>
<path d="M147.668 173.217L177.992 190.545V270.688H147.668V173.217Z" fill="url(#paint7_linear_900_19516)"/>
</g>
<path d="M35.5625 270.178H333.545" stroke="#9CACCE" stroke-width="2.16604" stroke-miterlimit="10"/>
<path d="M343.98 270.178H380.807" stroke="#9CACCE" stroke-width="2.16604" stroke-miterlimit="10"/>
</g>
<path d="M82.3482 179.97C82.3482 179.97 78.1144 178.379 76 186.31C73.8857 194.24 67.5375 192.675 65.9492 201.679C64.3609 210.683 66.455 219.687 64.892 223.921C63.329 228.154 58.5438 235.062 62.2465 243.519C65.9492 251.976 74.4117 257.288 86.0509 254.108C97.69 250.928 108.813 251.991 110.381 233.457C111.949 214.922 96.6278 219.156 97.1589 211.215C97.69 203.275 105.621 200.621 99.8044 193.207C93.9873 185.793 89.7535 187.91 87.1081 183.145C84.4626 178.379 82.3482 179.97 82.3482 179.97Z" fill="url(#paint8_linear_900_19516)"/>
<path d="M84.3241 270.139L84.0022 186.07H83.719L81.2969 270.3L84.3241 270.139Z" fill="url(#paint9_linear_900_19516)"/>
<path d="M81.8829 248.886L63.2734 235.051L83.0109 246.911L81.8829 248.886Z" fill="url(#paint10_linear_900_19516)"/>
<path d="M83.3048 222.265L69.4805 211.99L84.1445 220.797L83.3048 222.265Z" fill="url(#paint11_linear_900_19516)"/>
<path d="M84.1448 239.007L102.754 225.172L83.0117 237.027L84.1448 239.007Z" fill="url(#paint12_linear_900_19516)"/>
<path d="M84.3166 206.992L96.5476 197.902L83.5781 205.691L84.3166 206.992Z" fill="url(#paint13_linear_900_19516)"/>
<g clip-path="url(#clip2_900_19516)">
<path d="M131.066 256.868L160.21 247.167C161.687 246.674 163.235 246.429 164.759 246.429L171.466 173.449C170.217 173.449 168.956 173.615 167.753 173.944L141.558 181.126C140.403 181.45 139.562 182.169 139.415 182.968L126.334 254.13C125.938 256.283 128.445 257.74 131.066 256.868Z" fill="url(#paint14_linear_900_19516)"/>
<path d="M167.133 206.621C167.562 206.621 167.989 206.641 168.413 206.675L171.467 173.449C170.217 173.449 168.956 173.615 167.754 173.944L141.559 181.126C140.404 181.45 139.563 182.169 139.416 182.968L133.482 215.249L162.888 207.187C164.263 206.811 165.704 206.621 167.133 206.621Z" fill="url(#paint15_linear_900_19516)"/>
<path d="M198.024 180.566L175.089 173.944C173.947 173.615 172.714 173.449 171.467 173.449L164.76 246.429C166.283 246.429 167.786 246.675 169.173 247.167L197.175 257.096C198.635 257.612 200.199 257.874 201.766 257.874V181.082C200.489 181.082 199.214 180.91 198.024 180.566Z" fill="url(#paint16_linear_900_19516)"/>
<path d="M272.463 256.868L243.318 247.167C241.842 246.674 240.294 246.429 238.77 246.429L232.062 173.449C233.312 173.449 234.573 173.615 235.776 173.944L261.971 181.126C263.126 181.45 263.967 182.169 264.113 182.968L277.195 254.13C277.59 256.283 275.084 257.74 272.463 256.868Z" fill="url(#paint17_linear_900_19516)"/>
<path d="M236.398 206.621C237.826 206.621 239.268 206.811 240.642 207.187L270.048 215.248L264.114 182.968C263.967 182.168 263.126 181.45 261.971 181.126L235.776 173.944C234.573 173.615 233.312 173.449 232.062 173.449L235.116 206.675C235.541 206.641 235.968 206.621 236.398 206.621Z" fill="url(#paint18_linear_900_19516)"/>
<path d="M205.505 180.566L228.44 173.944C229.582 173.615 230.815 173.449 232.063 173.449L238.77 246.429C237.247 246.429 235.744 246.675 234.357 247.167L206.355 257.096C204.895 257.612 203.33 257.874 201.764 257.874V181.082C203.041 181.082 204.316 180.91 205.505 180.566Z" fill="url(#paint19_linear_900_19516)"/>
<path d="M260.033 186.601C259.895 185.852 259.341 185.249 258.607 185.047L234.541 178.45C234.346 178.396 234.145 178.349 233.943 178.308C233.328 178.184 232.696 178.121 232.064 178.121C231.249 178.121 230.444 178.229 229.737 178.433L206.804 185.054C206.63 185.104 206.452 185.148 206.274 185.19L206.184 185.211C205.944 185.271 205.655 185.341 205.342 185.403C204.162 185.636 202.959 185.754 201.765 185.754C200.557 185.754 199.343 185.634 198.155 185.397C197.632 185.293 197.165 185.18 196.728 185.054L173.793 178.432C173.622 178.383 173.443 178.339 173.26 178.301C172.884 178.222 172.489 178.169 172.085 178.141C171.882 178.128 171.674 178.121 171.466 178.121C170.631 178.121 169.774 178.235 168.988 178.45L144.924 185.047C144.189 185.248 143.635 185.852 143.498 186.601L132.12 248.496C131.847 249.98 133.265 251.212 134.697 250.736L158.733 242.736C160.679 242.087 162.706 241.758 164.76 241.758C166.842 241.759 168.852 242.097 170.733 242.765L198.732 252.692C199.676 253.026 200.724 253.203 201.765 253.203C202.805 253.203 203.854 253.026 204.795 252.693L232.796 242.765C234.678 242.097 236.688 241.758 238.77 241.758C240.823 241.758 242.85 242.087 244.795 242.735L268.833 250.737C270.265 251.213 271.683 249.98 271.41 248.496L260.033 186.601Z" fill="url(#paint20_linear_900_19516)"/>
<path d="M168.987 178.447L144.922 185.044C144.188 185.245 143.634 185.85 143.496 186.598L138.482 213.875L162.887 207.184C164.261 206.808 165.702 206.619 167.131 206.619C167.56 206.619 167.987 206.638 168.411 206.673L171.034 178.133C170.338 178.165 169.638 178.269 168.987 178.447Z" fill="url(#paint21_linear_900_19516)"/>
<path d="M198.155 185.397C197.632 185.293 197.164 185.18 196.728 185.054L173.793 178.433C173.622 178.383 173.443 178.339 173.26 178.301C172.884 178.222 172.489 178.169 172.085 178.141C171.882 178.128 171.673 178.121 171.466 178.121C171.323 178.121 171.179 178.129 171.035 178.136L165.188 241.767C167.117 241.811 168.981 242.143 170.733 242.765L198.732 252.692C199.676 253.026 200.724 253.203 201.765 253.203V185.754C200.557 185.754 199.343 185.634 198.155 185.397Z" fill="url(#paint22_linear_900_19516)"/>
<path d="M260.034 186.602C259.897 185.853 259.343 185.249 258.608 185.048L234.543 178.451C234.348 178.397 234.147 178.35 233.944 178.309C233.469 178.213 232.984 178.155 232.496 178.133L238.345 241.768C238.487 241.765 238.629 241.759 238.773 241.759C240.825 241.759 242.853 242.088 244.797 242.736L268.835 250.737C270.267 251.214 271.685 249.981 271.412 248.497L260.034 186.602Z" fill="url(#paint23_linear_900_19516)"/>
<path d="M204.794 252.693L232.795 242.765C234.548 242.143 236.412 241.81 238.341 241.767L232.493 178.132C232.35 178.125 232.206 178.121 232.063 178.121C231.248 178.121 230.443 178.229 229.736 178.433L206.803 185.054C206.629 185.104 206.451 185.148 206.273 185.19L206.183 185.211C205.942 185.271 205.654 185.341 205.341 185.403C204.161 185.636 202.957 185.754 201.764 185.754V253.202C202.804 253.202 203.853 253.026 204.794 252.693Z" fill="url(#paint24_linear_900_19516)"/>
<path d="M168.988 178.447L144.924 185.044C144.189 185.245 143.635 185.849 143.498 186.598L132.12 248.493C131.847 249.977 133.265 251.209 134.697 250.733L158.733 242.733C160.679 242.084 162.706 241.755 164.76 241.755C164.903 241.755 165.045 241.761 165.188 241.764L171.036 178.133C170.339 178.164 169.639 178.269 168.988 178.447Z" fill="url(#paint25_linear_900_19516)"/>
<path d="M171.272 207.185L197.488 214.754C198.847 215.147 200.305 215.344 201.765 215.344V181.08C200.488 181.08 199.212 180.908 198.023 180.564L175.088 173.942C173.946 173.613 172.713 173.447 171.466 173.447L168.412 206.673C169.396 206.753 170.36 206.922 171.272 207.185Z" fill="url(#paint26_linear_900_19516)"/>
<path d="M196.727 185.054L173.793 178.433C173.621 178.383 173.442 178.339 173.26 178.301C172.884 178.222 172.488 178.169 172.085 178.141C171.881 178.128 171.673 178.121 171.466 178.121C171.323 178.121 171.179 178.129 171.035 178.136L168.412 206.675C169.396 206.755 170.36 206.924 171.272 207.187L197.488 214.756C198.847 215.149 200.305 215.346 201.765 215.346V185.754C200.557 185.754 199.342 185.634 198.155 185.397C197.631 185.293 197.164 185.18 196.727 185.054Z" fill="url(#paint27_linear_900_19516)"/>
<path d="M265.048 213.878L260.034 186.602C259.897 185.853 259.343 185.249 258.608 185.048L234.543 178.451C234.348 178.397 234.147 178.35 233.944 178.309C233.469 178.213 232.984 178.155 232.496 178.133L235.119 206.676C235.544 206.642 235.971 206.623 236.4 206.623C237.828 206.623 239.27 206.812 240.644 207.188L265.048 213.878Z" fill="url(#paint28_linear_900_19516)"/>
<path d="M206.04 214.756L232.256 207.187C233.168 206.924 234.132 206.755 235.116 206.675L232.062 173.449C230.815 173.449 229.582 173.615 228.44 173.944L205.505 180.566C204.316 180.91 203.04 181.082 201.764 181.082V215.346C203.223 215.346 204.681 215.149 206.04 214.756Z" fill="url(#paint29_linear_900_19516)"/>
<path d="M206.04 214.756L232.257 207.187C233.169 206.925 234.132 206.755 235.116 206.675L232.493 178.132C232.35 178.125 232.206 178.121 232.063 178.121C231.248 178.121 230.443 178.229 229.736 178.433L206.803 185.054C206.629 185.104 206.451 185.148 206.273 185.19L206.183 185.211C205.942 185.271 205.654 185.341 205.341 185.403C204.161 185.636 202.957 185.754 201.764 185.754V215.346C203.223 215.346 204.681 215.149 206.04 214.756Z" fill="url(#paint30_linear_900_19516)"/>
<path d="M262.893 202.168C263.023 207.591 261.667 210.882 258.698 212.417C255.369 214.138 250.811 213.204 244.763 209.56C239.676 206.495 234.262 203.661 228.921 205.542C226.457 206.41 224.628 208.164 223.311 209.595C222.653 210.309 222.007 211.064 221.382 211.795C218.888 214.712 216.531 217.468 213.016 218.439C210.015 219.269 206.874 218.588 203.548 217.866C201.305 217.38 198.985 216.877 196.638 216.844C193.833 216.802 191.013 217.51 188.426 218.797C186.786 218.491 184.03 218.743 181.776 218.951C180.951 219.027 180.239 219.092 179.751 219.113C178.318 219.175 176.459 218.763 175.942 217.397C175.732 216.843 175.752 216.137 175.791 215.462C175.95 212.684 176.405 209.92 177.141 207.246L177.161 207.173C177.405 206.291 177.708 205.194 177.4 204.085C177.142 203.159 176.497 202.344 175.428 201.593C173.605 200.314 171.469 199.619 169.402 198.947C166.535 198.016 163.827 197.135 162.384 194.812C160.776 192.224 161.472 188.694 162.876 186.343C164.481 183.657 167.003 181.721 169.665 179.813L169.791 179.722C170.499 179.215 171.178 178.122 171.033 178.129C170.337 178.161 169.637 178.27 168.986 178.448L167.146 178.952C164.818 180.687 162.547 182.643 161.005 185.225C158.878 188.787 158.692 193.002 160.532 195.963C162.397 198.962 165.616 200.009 168.729 201.021C170.642 201.642 172.621 202.286 174.176 203.377C174.815 203.826 175.183 204.249 175.3 204.669C175.446 205.195 175.259 205.874 175.061 206.592L175.04 206.667C174.262 209.489 173.783 212.405 173.615 215.337C173.566 216.207 173.543 217.214 173.903 218.168C174.78 220.485 177.283 221.299 179.467 221.299C179.595 221.299 179.722 221.296 179.847 221.291C180.387 221.268 181.123 221.2 181.976 221.121C182.895 221.037 184.026 220.933 185.097 220.875C182.581 222.801 180.472 225.321 179.092 228.227L179.048 228.317C178.768 228.911 178.502 229.471 178.086 229.676C177.613 229.909 176.844 229.765 176.101 229.626L175.945 229.597C169.185 228.343 161.388 230.227 154.554 234.766C148.62 238.707 144.066 243.958 139.686 249.073L143.73 247.726C147.306 243.647 151.122 239.662 155.76 236.581C162.126 232.353 169.339 230.588 175.548 231.74L175.699 231.768C176.691 231.954 177.925 232.185 179.05 231.631C180.148 231.09 180.631 230.069 181.019 229.249L181.061 229.161C183.907 223.167 190.201 219.022 196.42 219.022C196.483 219.022 196.547 219.023 196.61 219.023C198.738 219.052 200.948 219.532 203.087 219.995C204.954 220.4 206.856 220.811 208.768 220.947C211.698 221.658 213.709 224.941 214.792 226.711L214.809 226.74C216.468 229.45 218.506 231.007 220.705 231.241C222.316 231.412 223.859 230.853 225.099 230.403L228.131 229.302C232.535 227.703 237.486 229.638 239.643 233.804C240.208 234.894 240.842 235.96 241.526 236.972C241.672 237.187 241.821 237.402 241.971 237.618C242.78 238.785 243.545 239.887 243.812 241.111C243.907 241.545 243.938 242.001 243.943 242.473C244.228 242.553 244.512 242.639 244.794 242.733L246.115 243.172C246.137 242.351 246.129 241.507 245.942 240.647C245.583 239 244.657 237.666 243.762 236.375C243.617 236.167 243.473 235.958 243.331 235.75C242.695 234.809 242.105 233.816 241.579 232.801C238.919 227.667 232.818 225.281 227.386 227.253L224.354 228.354C223.272 228.747 222.044 229.192 220.936 229.074C219.041 228.872 217.569 227.075 216.669 225.602L216.651 225.574C215.853 224.268 214.615 222.25 212.83 220.722C213.086 220.669 213.342 220.611 213.597 220.54C217.755 219.391 220.442 216.249 223.039 213.211C223.651 212.496 224.284 211.756 224.915 211.071C226.062 209.826 227.636 208.306 229.646 207.598C234.093 206.03 238.996 208.63 243.638 211.427C250.389 215.494 255.642 216.451 259.7 214.353C262.014 213.156 263.388 211.272 264.17 209.113L262.893 202.168Z" fill="#E7F1FD"/>
<path d="M271.518 223.239L223.617 175.338L205.507 180.566C204.318 180.91 203.043 181.082 201.766 181.082C200.891 181.082 200.018 180.995 199.171 180.833C198.783 180.759 198.399 180.674 198.025 180.566L184.264 176.593L179.91 175.336C179.751 176.408 179.666 177.505 179.666 178.623C179.666 188.46 186.093 209.742 194.977 217.634L227.088 249.745L234.359 247.168C235.746 246.675 237.249 246.43 238.772 246.43C240.296 246.43 241.845 246.675 243.321 247.168L272.465 256.868C275.087 257.741 277.592 256.283 277.197 254.131L271.518 223.239Z" fill="url(#paint31_linear_900_19516)"/>
<path d="M223.867 178.622C223.867 190.828 213.973 220.661 201.767 220.661C189.561 220.661 179.666 190.828 179.666 178.622C179.666 166.416 189.561 156.521 201.767 156.521C213.973 156.521 223.867 166.416 223.867 178.622Z" fill="url(#paint32_linear_900_19516)"/>
<path d="M222.703 179.147C222.703 190.71 213.329 218.973 201.767 218.973C190.204 218.973 180.83 190.71 180.83 179.147C180.83 167.585 190.203 158.211 201.766 158.211C213.329 158.211 222.703 167.585 222.703 179.147Z" fill="url(#paint33_linear_900_19516)"/>
<path d="M223.833 179.886L212.812 168.801C210.05 165.853 206.124 164.008 201.765 164.008C193.403 164.008 186.625 170.786 186.625 179.147C186.625 183.467 188.438 187.362 191.34 190.12L213.177 212.084C219.262 202.799 223.43 188.207 223.833 179.886Z" fill="url(#paint34_linear_900_19516)"/>
<path d="M201.764 194.285C210.125 194.285 216.902 187.507 216.902 179.146C216.902 170.786 210.125 164.008 201.764 164.008C193.403 164.008 186.625 170.786 186.625 179.146C186.625 187.507 193.403 194.285 201.764 194.285Z" fill="url(#paint35_radial_900_19516)"/>
<path d="M165.971 233.268L164.76 246.43C163.236 246.43 161.688 246.675 160.211 247.167L131.067 256.869C128.445 257.739 125.938 256.283 126.335 254.131L128.249 243.719C129.066 243.979 130.058 243.991 131.067 243.654L160.211 233.955C161.688 233.46 163.236 233.215 164.76 233.215C165.166 233.215 165.568 233.233 165.971 233.268Z" fill="url(#paint36_linear_900_19516)"/>
<path d="M201.765 244.661V257.876C200.199 257.876 198.634 257.613 197.174 257.098L169.173 247.168C167.785 246.677 166.281 246.431 164.76 246.431L165.97 233.27C167.074 233.364 168.155 233.592 169.173 233.956L197.174 243.883C198.633 244.401 200.199 244.661 201.765 244.661Z" fill="url(#paint37_linear_900_19516)"/>
<path d="M272.464 256.869L243.32 247.167C241.843 246.675 240.295 246.43 238.771 246.43L237.561 233.268C237.963 233.233 238.366 233.215 238.771 233.215C240.295 233.215 241.843 233.46 243.32 233.955L272.464 243.654C273.473 243.991 274.465 243.979 275.282 243.719L277.196 254.131C277.593 256.283 275.086 257.739 272.464 256.869Z" fill="url(#paint38_linear_900_19516)"/>
<path d="M238.769 246.431C237.247 246.431 235.744 246.677 234.356 247.168L206.354 257.098C204.895 257.613 203.329 257.876 201.764 257.876V244.661C203.329 244.661 204.895 244.401 206.354 243.883L234.356 233.956C235.374 233.592 236.454 233.364 237.558 233.27L238.769 246.431Z" fill="url(#paint39_linear_900_19516)"/>
</g>
</g>
<defs>
<linearGradient id="paint0_linear_900_19516" x1="18.6367" y1="45.4199" x2="174.721" y2="358.335" gradientUnits="userSpaceOnUse">
<stop stop-color="#AACBFA"/>
<stop offset="1" stop-color="#C4DFFB"/>
</linearGradient>
<linearGradient id="paint1_linear_900_19516" x1="283.259" y1="125.142" x2="343.583" y2="126.718" gradientUnits="userSpaceOnUse">
<stop stop-color="#C5D2EC"/>
<stop offset="0.9964" stop-color="#F1F7FE"/>
</linearGradient>
<linearGradient id="paint2_linear_900_19516" x1="219.362" y1="188.729" x2="279.598" y2="191.523" gradientUnits="userSpaceOnUse">
<stop stop-color="#C5D2EC"/>
<stop offset="0.9964" stop-color="#F1F7FE"/>
</linearGradient>
<linearGradient id="paint3_linear_900_19516" x1="228.25" y1="51.6606" x2="337.375" y2="55.0877" gradientUnits="userSpaceOnUse">
<stop stop-color="#C5D2EC"/>
<stop offset="0.9964" stop-color="#F1F7FE"/>
</linearGradient>
<linearGradient id="paint4_linear_900_19516" x1="94.5244" y1="74.2697" x2="174.959" y2="76.3453" gradientUnits="userSpaceOnUse">
<stop stop-color="#C5D2EC"/>
<stop offset="0.9964" stop-color="#F1F7FE"/>
</linearGradient>
<linearGradient id="paint5_linear_900_19516" x1="108.09" y1="108.844" x2="155.863" y2="122.614" gradientUnits="userSpaceOnUse">
<stop stop-color="#C5D2EC"/>
<stop offset="0.9964" stop-color="#F1F7FE"/>
</linearGradient>
<linearGradient id="paint6_linear_900_19516" x1="116.228" y1="93.8215" x2="150.209" y2="98.0004" gradientUnits="userSpaceOnUse">
<stop stop-color="#C5D2EC"/>
<stop offset="0.9964" stop-color="#F1F7FE"/>
</linearGradient>
<linearGradient id="paint7_linear_900_19516" x1="124.849" y1="143.511" x2="205.209" y2="146.714" gradientUnits="userSpaceOnUse">
<stop stop-color="#C5D2EC"/>
<stop offset="0.9964" stop-color="#F1F7FE"/>
</linearGradient>
<linearGradient id="paint8_linear_900_19516" x1="23.5331" y1="156.759" x2="154.306" y2="167.794" gradientUnits="userSpaceOnUse">
<stop stop-color="#C5D2EC"/>
<stop offset="0.9964" stop-color="#F1F7FE"/>
</linearGradient>
<linearGradient id="paint9_linear_900_19516" x1="81.6944" y1="187.527" x2="86.1989" y2="187.554" gradientUnits="userSpaceOnUse">
<stop stop-color="#B0BBCC"/>
<stop offset="1" stop-color="#8D9EB7"/>
</linearGradient>
<linearGradient id="paint10_linear_900_19516" x1="65.8655" y1="235.29" x2="93.6897" y2="241.848" gradientUnits="userSpaceOnUse">
<stop stop-color="#B0BBCC"/>
<stop offset="1" stop-color="#8D9EB7"/>
</linearGradient>
<linearGradient id="paint11_linear_900_19516" x1="71.4063" y1="212.168" x2="92.0775" y2="217.042" gradientUnits="userSpaceOnUse">
<stop stop-color="#B0BBCC"/>
<stop offset="1" stop-color="#8D9EB7"/>
</linearGradient>
<linearGradient id="paint12_linear_900_19516" x1="85.6045" y1="225.411" x2="113.435" y2="231.972" gradientUnits="userSpaceOnUse">
<stop stop-color="#B0BBCC"/>
<stop offset="1" stop-color="#8D9EB7"/>
</linearGradient>
<linearGradient id="paint13_linear_900_19516" x1="85.2814" y1="198.06" x2="103.564" y2="202.369" gradientUnits="userSpaceOnUse">
<stop stop-color="#B0BBCC"/>
<stop offset="1" stop-color="#8D9EB7"/>
</linearGradient>
<linearGradient id="paint14_linear_900_19516" x1="146.161" y1="215.368" x2="178.125" y2="214.776" gradientUnits="userSpaceOnUse">
<stop stop-color="#E7F1FD"/>
<stop offset="1" stop-color="#B2C7D8"/>
</linearGradient>
<linearGradient id="paint15_linear_900_19516" x1="153.155" y1="199.689" x2="157.52" y2="233.929" gradientUnits="userSpaceOnUse">
<stop stop-color="#B2C7D8" stop-opacity="0"/>
<stop offset="1" stop-color="#879FAF"/>
</linearGradient>
<linearGradient id="paint16_linear_900_19516" x1="178.555" y1="214.616" x2="208.151" y2="218.463" gradientUnits="userSpaceOnUse">
<stop stop-color="#E7F1FD"/>
<stop offset="1" stop-color="#B2C7D8"/>
</linearGradient>
<linearGradient id="paint17_linear_900_19516" x1="276.801" y1="215.599" x2="231.628" y2="215.007" gradientUnits="userSpaceOnUse">
<stop stop-color="#E7F1FD"/>
<stop offset="1" stop-color="#B2C7D8"/>
</linearGradient>
<linearGradient id="paint18_linear_900_19516" x1="251.181" y1="200.061" x2="252.528" y2="260.033" gradientUnits="userSpaceOnUse">
<stop stop-color="#B2C7D8" stop-opacity="0"/>
<stop offset="1" stop-color="#879FAF"/>
</linearGradient>
<linearGradient id="paint19_linear_900_19516" x1="223.176" y1="215.818" x2="199.203" y2="215.226" gradientUnits="userSpaceOnUse">
<stop stop-color="#E7F1FD"/>
<stop offset="1" stop-color="#B2C7D8"/>
</linearGradient>
<linearGradient id="paint20_linear_900_19516" x1="201.763" y1="175.757" x2="201.763" y2="263.306" gradientUnits="userSpaceOnUse">
<stop stop-color="#B3E800"/>
<stop offset="1" stop-color="#98BC00"/>
</linearGradient>
<linearGradient id="paint21_linear_900_19516" x1="155.342" y1="200.592" x2="159.066" y2="229.8" gradientUnits="userSpaceOnUse">
<stop stop-color="#98BC00" stop-opacity="0"/>
<stop offset="1" stop-color="#5E6D03"/>
</linearGradient>
<linearGradient id="paint22_linear_900_19516" x1="183.81" y1="215.299" x2="212.844" y2="219.076" gradientUnits="userSpaceOnUse">
<stop stop-color="#98BC00" stop-opacity="0"/>
<stop offset="1" stop-color="#5E6D03"/>
</linearGradient>
<linearGradient id="paint23_linear_900_19516" x1="244.313" y1="215.037" x2="222.61" y2="216.813" gradientUnits="userSpaceOnUse">
<stop stop-color="#98BC00" stop-opacity="0"/>
<stop offset="1" stop-color="#5E6D03"/>
</linearGradient>
<linearGradient id="paint24_linear_900_19516" x1="223.69" y1="235.037" x2="199.995" y2="165.112" gradientUnits="userSpaceOnUse">
<stop stop-color="#98BC00" stop-opacity="0"/>
<stop offset="1" stop-color="#5E6D03"/>
</linearGradient>
<linearGradient id="paint25_linear_900_19516" x1="152.228" y1="214.471" x2="183.6" y2="216.049" gradientUnits="userSpaceOnUse">
<stop stop-color="#98BC00" stop-opacity="0"/>
<stop offset="1" stop-color="#5E6D03"/>
</linearGradient>
<linearGradient id="paint26_linear_900_19516" x1="185.893" y1="201.658" x2="183.596" y2="228.312" gradientUnits="userSpaceOnUse">
<stop stop-color="#909698" stop-opacity="0"/>
<stop offset="1" stop-color="#909698"/>
</linearGradient>
<linearGradient id="paint27_linear_900_19516" x1="185.768" y1="203.122" x2="183.743" y2="226.607" gradientUnits="userSpaceOnUse">
<stop stop-color="#889B26" stop-opacity="0"/>
<stop offset="1" stop-color="#454F1E"/>
</linearGradient>
<linearGradient id="paint28_linear_900_19516" x1="248.879" y1="200.891" x2="250.031" y2="252.179" gradientUnits="userSpaceOnUse">
<stop stop-color="#98BC00" stop-opacity="0"/>
<stop offset="1" stop-color="#5E6D03"/>
</linearGradient>
<linearGradient id="paint29_linear_900_19516" x1="220.401" y1="203.616" x2="228.528" y2="225.079" gradientUnits="userSpaceOnUse">
<stop stop-color="#909698" stop-opacity="0"/>
<stop offset="1" stop-color="#909698"/>
</linearGradient>
<linearGradient id="paint30_linear_900_19516" x1="220.164" y1="204.762" x2="227.297" y2="223.6" gradientUnits="userSpaceOnUse">
<stop stop-color="#889B26" stop-opacity="0"/>
<stop offset="1" stop-color="#454F1E"/>
</linearGradient>
<linearGradient id="paint31_linear_900_19516" x1="249.948" y1="237.163" x2="180.024" y2="167.239" gradientUnits="userSpaceOnUse">
<stop stop-color="#98BC00" stop-opacity="0"/>
<stop offset="1" stop-color="#5E6D03"/>
</linearGradient>
<linearGradient id="paint32_linear_900_19516" x1="221.45" y1="188.593" x2="174.347" y2="188.593" gradientUnits="userSpaceOnUse">
<stop stop-color="#FF4C4A"/>
<stop offset="1" stop-color="#FF001C"/>
</linearGradient>
<linearGradient id="paint33_linear_900_19516" x1="197.852" y1="188.594" x2="210.117" y2="188.594" gradientUnits="userSpaceOnUse">
<stop stop-color="#FF4C4A"/>
<stop offset="1" stop-color="#FF001C"/>
</linearGradient>
<linearGradient id="paint34_linear_900_19516" x1="225.525" y1="202.971" x2="191.842" y2="169.288" gradientUnits="userSpaceOnUse">
<stop stop-color="#FF001C" stop-opacity="0"/>
<stop offset="1" stop-color="#C1001C"/>
</linearGradient>
<radialGradient id="paint35_radial_900_19516" cx="0" cy="0" r="1" gradientUnits="userSpaceOnUse" gradientTransform="translate(192.188 169.642) scale(29.7414 29.7414)">
<stop stop-color="#FFCF42"/>
<stop offset="0.109" stop-color="#FFCD3C"/>
<stop offset="0.258" stop-color="#FFC62A"/>
<stop offset="0.429" stop-color="#FFBA0D"/>
<stop offset="0.496" stop-color="#FFB500"/>
<stop offset="1" stop-color="#FF7000"/>
</radialGradient>
<linearGradient id="paint36_linear_900_19516" x1="147.519" y1="248.897" x2="148.286" y2="251.558" gradientUnits="userSpaceOnUse">
<stop stop-color="#B2C7D8" stop-opacity="0"/>
<stop offset="1" stop-color="#879FAF"/>
</linearGradient>
<linearGradient id="paint37_linear_900_19516" x1="182.425" y1="249.531" x2="181.597" y2="251.807" gradientUnits="userSpaceOnUse">
<stop stop-color="#B2C7D8" stop-opacity="0"/>
<stop offset="1" stop-color="#879FAF"/>
</linearGradient>
<linearGradient id="paint38_linear_900_19516" x1="255.736" y1="248.716" x2="254.789" y2="251.339" gradientUnits="userSpaceOnUse">
<stop stop-color="#B2C7D8" stop-opacity="0"/>
<stop offset="1" stop-color="#879FAF"/>
</linearGradient>
<linearGradient id="paint39_linear_900_19516" x1="220.863" y1="248.92" x2="221.843" y2="251.643" gradientUnits="userSpaceOnUse">
<stop stop-color="#B2C7D8" stop-opacity="0"/>
<stop offset="1" stop-color="#879FAF"/>
</linearGradient>
<clipPath id="clip0_900_19516">
<rect width="400" height="270" fill="white"/>
</clipPath>
<clipPath id="clip1_900_19516">
<rect width="365.313" height="225.381" fill="white" transform="translate(18.6367 45.4199)"/>
</clipPath>
<clipPath id="clip2_900_19516">
<rect width="150.945" height="150.945" fill="white" transform="translate(126.293 131.727)"/>
</clipPath>
</defs>
</svg>
